PathFileType	4	(X/Y/Z)	/Users/itak/Documents/Research/Walk-IL/dataset/trc/00453_00167.trc
DataRate	CameraRate	NumFrames	NumMarkers	Units	OrigDataRate	OrigDataStartFrame	OrigNumFrames
100.000000	100.000000	4	53	mm	100.000000	201	536
Frame#	Time	RPSI			LPSI			L3			STRN			T10			C7			CLAV			RBAK			LBAK			LSHO			LUPA			LAEL			LAOL			LWTS			LWPS			LFRA			LIFD			LHPS			LHTS			RSHO			RUPA			RAEL			RAOL			RWTS			RWPS			RFRA			RIFD			RHTS			RHPS			RBHD			LFHD			RFHD			LBHD			LHIP			RHIP			RASI			LASI			LKNE			LTHI			LANK			LTIP			LTOE			LMT1			LMT5			LHEE			RKNE			RTHI			RANK			RTIP			RTOE			RMT1			RMT5			RHEE			
		X1	Y1	Z1	X2	Y2	Z2	X3	Y3	Z3	X4	Y4	Z4	X5	Y5	Z5	X6	Y6	Z6	X7	Y7	Z7	X8	Y8	Z8	X9	Y9	Z9	X10	Y10	Z10	X11	Y11	Z11	X12	Y12	Z12	X13	Y13	Z13	X14	Y14	Z14	X15	Y15	Z15	X16	Y16	Z16	X17	Y17	Z17	X18	Y18	Z18	X19	Y19	Z19	X20	Y20	Z20	X21	Y21	Z21	X22	Y22	Z22	X23	Y23	Z23	X24	Y24	Z24	X25	Y25	Z25	X26	Y26	Z26	X27	Y27	Z27	X28	Y28	Z28	X29	Y29	Z29	X30	Y30	Z30	X31	Y31	Z31	X32	Y32	Z32	X33	Y33	Z33	X34	Y34	Z34	X35	Y35	Z35	X36	Y36	Z36	X37	Y37	Z37	X38	Y38	Z38	X39	Y39	Z39	X40	Y40	Z40	X41	Y41	Z41	X42	Y42	Z42	X43	Y43	Z43	X44	Y44	Z44	X45	Y45	Z45	X46	Y46	Z46	X47	Y47	Z47	X48	Y48	Z48	X49	Y49	Z49	X50	Y50	Z50	X51	Y51	Z51	X52	Y52	Z52	X53	Y53	Z53	

202	2.01	-1695.172485351562	917.4990234375	-446.6042785644531	-1638.646362304688	927.0370483398438	-578.080322265625	-1622.855712890625	1025.680908203125	-498.1909790039062	-1324.027587890625	1137.1962890625	-355.6070556640625	-1587.876831054688	1146.056640625	-499.9671325683594	-1468.41748046875	1385.719360351562	-424.7095031738281	-1322.940307617188	1257.5185546875	-357.6041870117188	-1592.533203125	1293.131958007812	-393.9551696777344	-1457.231323242188	1346.975341796875	-534.0214233398438	-1325.596069335938	1346.951538085938	-547.77099609375	-1292.70556640625	1246.756225585938	-657.4718627929688	-1229.24755859375	1067.796997070312	-714.058837890625	-1314.750610351562	1004.090270996094	-699.1524658203125	-1102.729370117188	997.44970703125	-563.1261596679688	-1085.609252929688	943.5872192382812	-611.3328247070312	-1164.254516601562	1019.307067871094	-675.6109619140625	-988.5595092773438	908.4373168945312	-478.2183532714844	-1028.789306640625	905.3401489257812	-568.67724609375	-1029.636474609375	962.70654296875	-525.0172119140625	-1495.8759765625	1342.568725585938	-253.7180023193359	-1572.227905273438	1302.534423828125	-214.5644989013672	-1748.2392578125	1082.680908203125	-227.0965423583984	-1764.928833007812	1100.20458984375	-290.0854797363281	-1808.763549804688	864.4232788085938	-270.9712829589844	-1882.655395507812	910.4217529296875	-261.1422119140625	-1789.786743164062	1041.500732421875	-232.3665618896484	-1917.236083984375	757.7074584960938	-315.3541564941406	-1874.683471679688	787.6923217773438	-285.36572265625	-1931.553588867188	838.60888671875	-281.2953186035156	-1444.701782226562	1551.358154296875	-313.7911376953125	-1253.539306640625	1579.21337890625	-390.1455993652344	-1315.422241210938	1579.941650390625	-274.4043579101562	-1376.810913085938	1553.629760742188	-477.8796997070312	-1489.652709960938	800.2910766601562	-642.1694946289062	-1628.975830078125	830.8558959960938	-259.934814453125	-1517.766967773438	861.940185546875	-300.0304260253906	-1418.909545898438	820.4060668945312	-534.5010986328125	-1555.378051757812	380.6206359863281	-640.1921997070312	-1494.411865234375	527.5108032226562	-636.740966796875	-1834.639526367188	78.15499877929688	-775.3248901367188	-1643.772338867188	256.39208984375	-694.108642578125	-1689.788818359375	46.16562271118164	-598.056640625	-1759.456176757812	58.82893371582031	-611.1709594726562	-1706.580200195312	43.78755950927734	-711.7659912109375	-1902.854248046875	111.6002960205078	-759.361328125	-1380.27734375	542.8677368164062	-167.5780944824219	-1531.656127929688	744.0098876953125	-206.5672607421875	-1614.958129882812	195.3752593994141	-273.9609680175781	-1445.605346679688	418.6289978027344	-183.8040924072266	-1422.898559570312	129.0118560791016	-208.2706146240234	-1451.323120117188	142.7370147705078	-271.9921569824219	-1523.176513671875	150.3308868408203	-193.2710723876953	-1645.603393554688	212.0529327392578	-346.646240234375	
203	2.02	-1683.408813476562	922.398193359375	-438.2665710449219	-1627.211303710938	931.3594360351562	-569.7423095703125	-1610.697265625	1029.480834960938	-490.6091003417969	-1312.81591796875	1141.697387695312	-347.6495361328125	-1576.2119140625	1149.671508789062	-492.8861999511719	-1458.057739257812	1389.587890625	-417.0550231933594	-1312.220092773438	1262.013916015625	-349.5496520996094	-1581.611694335938	1296.913452148438	-386.7074584960938	-1446.649536132812	1351.156982421875	-526.6500854492188	-1315.026733398438	1351.999633789062	-539.6146850585938	-1280.716796875	1251.6787109375	-648.565673828125	-1215.534057617188	1073.592529296875	-703.3800048828125	-1299.8408203125	1007.924194335938	-687.9652709960938	-1088.927734375	1010.356750488281	-549.9345092773438	-1069.81884765625	955.4334106445312	-596.2552490234375	-1149.705078125	1027.688720703125	-663.0982055664062	-972.634765625	928.8709106445312	-460.8174743652344	-1011.831176757812	920.6739501953125	-551.7999877929688	-1015.005981445312	979.6920776367188	-510.3951721191406	-1485.467163085938	1346.360107421875	-246.1952362060547	-1561.865966796875	1306.744873046875	-207.1477355957031	-1739.034912109375	1088.359008789062	-221.6264190673828	-1754.951782226562	1106.675048828125	-284.5239868164062	-1804.042114257812	871.2137451171875	-267.6034545898438	-1876.888793945312	918.9053955078125	-257.5911560058594	-1781.3505859375	1048.10693359375	-227.3414001464844	-1915.358032226562	767.8610229492188	-314.4399719238281	-1872.00439453125	796.1664428710938	-283.5428466796875	-1927.515991210938	848.5729370117188	-279.1517028808594	-1434.13671875	1555.809326171875	-305.829345703125	-1242.812866210938	1583.112060546875	-381.9446105957031	-1304.845581054688	1583.9677734375	-266.2715759277344	-1366.044189453125	1558.017211914062	-469.8479309082031	-1480.080322265625	803.8441772460938	-634.7335205078125	-1616.879150390625	836.1927490234375	-251.6677398681641	-1505.700805664062	865.7394409179688	-292.6784057617188	-1407.894287109375	823.3015747070312	-527.4230346679688	-1552.411254882812	385.9672546386719	-637.1873779296875	-1489.294677734375	531.6280517578125	-631.8710327148438	-1831.552001953125	83.33043670654297	-774.59423828125	-1640.0947265625	262.0230102539062	-691.9124145507812	-1689.863891601562	46.13476943969727	-597.973388671875	-1758.373413085938	59.06935501098633	-610.6295166015625	-1705.97314453125	43.76221466064453	-711.1927490234375	-1898.24609375	118.9204177856445	-758.2835693359375	-1368.602172851562	545.9064331054688	-160.7210388183594	-1520.110595703125	748.5808715820312	-198.5380706787109	-1594.358032226562	190.5467834472656	-263.7637329101562	-1430.65673828125	418.9862670898438	-175.7017059326172	-1399.663696289062	129.8506164550781	-200.4579620361328	-1429.293090820312	142.7021179199219	-263.8174743652344	-1500.361572265625	148.3287353515625	-184.2248382568359	-1626.345947265625	206.2515106201172	-336.2102966308594	
204	2.03	-1671.150024414062	927.5617065429688	-429.8088073730469	-1615.136596679688	935.9677124023438	-561.1920166015625	-1598.155517578125	1033.654418945312	-482.8026733398438	-1301.362060546875	1146.71826171875	-339.3771057128906	-1564.2939453125	1153.73583984375	-485.5226745605469	-1447.5654296875	1393.858764648438	-409.12890625	-1301.348999023438	1267.018310546875	-341.2431335449219	-1570.470581054688	1301.085571289062	-379.147705078125	-1435.912963867188	1355.806884765625	-518.9949340820312	-1304.316528320312	1357.467041015625	-531.1849365234375	-1268.648071289062	1257.02001953125	-639.3787231445312	-1202.056884765625	1079.5927734375	-692.441650390625	-1285.396484375	1012.349609375	-676.6260986328125	-1075.814453125	1022.675598144531	-536.8419189453125	-1054.921264648438	966.8142700195312	-581.2931518554688	-1135.629272460938	1036.016723632812	-650.4934692382812	-958.1065673828125	948.384033203125	-443.8353271484375	-996.0573120117188	935.3447875976562	-535.1697998046875	-1001.354431152344	995.810546875	-496.05224609375	-1474.852172851562	1350.553833007812	-238.3683166503906	-1551.23583984375	1311.28955078125	-199.321533203125	-1729.1162109375	1093.949096679688	-215.6296844482422	-1744.407836914062	1113.032958984375	-278.3984680175781	-1797.992919921875	877.9002685546875	-263.6499938964844	-1869.9521484375	926.9664306640625	-253.405517578125	-1772.08935546875	1054.523681640625	-221.7523956298828	-1911.646484375	777.4090576171875	-312.5928039550781	-1867.599487304688	804.2999267578125	-280.9270324707031	-1921.98486328125	857.9014282226562	-276.2240600585938	-1423.426635742188	1560.657592773438	-297.5239562988281	-1231.94775390625	1587.416870117188	-373.4192504882812	-1294.107543945312	1588.362670898438	-257.8058776855469	-1355.14111328125	1562.846069335938	-461.4881896972656	-1469.728637695312	807.8587646484375	-626.9503173828125	-1604.4345703125	841.529296875	-243.3336639404297	-1493.306884765625	869.6845703125	-285.0001831054688	-1396.182861328125	826.75390625	-519.892578125	-1548.336669921875	391.8568725585938	-633.8748168945312	-1483.168579101562	536.3059692382812	-626.6859130859375	-1827.728149414062	89.14923095703125	-773.6005249023438	-1635.341430664062	268.2350769042969	-689.4966430664062	-1689.908935546875	46.11779022216797	-597.89404296875	-1757.036865234375	59.34680557250977	-610.0354614257812	-1705.185424804688	43.70761489868164	-710.57470703125	-1892.523803710938	127.1693725585938	-756.7886962890625	-1357.60205078125	548.0089111328125	-154.0305938720703	-1508.427612304688	752.8153076171875	-190.5170593261719	-1574.147094726562	184.9646453857422	-253.9382476806641	-1416.325317382812	418.455078125	-167.8094177246094	-1377.010620117188	129.8910369873047	-193.0984649658203	-1407.81591796875	141.9159393310547	-256.0752868652344	-1478.0439453125	145.4796905517578	-175.6114501953125	-1607.43505859375	199.7809448242188	-326.1162719726562	
205	2.04	-1658.423461914062	932.8715209960938	-421.2508544921875	-1602.451904296875	940.7775268554688	-552.4539184570312	-1585.278442382812	1038.104614257812	-474.78125	-1289.697387695312	1152.147827148438	-330.8171081542969	-1552.1591796875	1158.158569335938	-477.8689880371094	-1436.957763671875	1398.427001953125	-400.9483032226562	-1290.3544921875	1272.419067382812	-332.7152709960938	-1559.122436523438	1305.5380859375	-371.275146484375	-1425.043579101562	1360.818359375	-511.0699462890625	-1293.489013671875	1363.224243164062	-522.5096435546875	-1256.548095703125	1262.674682617188	-629.9735107421875	-1188.84716796875	1085.687255859375	-681.3375244140625	-1271.480712890625	1017.265808105469	-665.2689208984375	-1063.354858398438	1034.258056640625	-523.8972778320312	-1040.900390625	977.5488891601562	-566.497314453125	-1122.0517578125	1044.151733398438	-637.8723754882812	-944.90283203125	966.7071533203125	-427.3056030273438	-981.4490356445312	949.1209106445312	-518.8214111328125	-988.6210327148438	1010.85546875	-482.0101318359375	-1464.042846679688	1355.0458984375	-230.2493743896484	-1540.349365234375	1316.068969726562	-191.0904388427734	-1718.51904296875	1099.329956054688	-209.1017761230469	-1733.34619140625	1119.15478515625	-271.7168579101562	-1790.575439453125	884.3248291015625	-259.0795288085938	-1861.842895507812	934.4174194335938	-248.5723571777344	-1762.038452148438	1060.612182617188	-215.5993194580078	-1906.012329101562	786.064453125	-309.6693115234375	-1861.381713867188	811.8665161132812	-277.4197387695312	-1914.934814453125	866.3487548828125	-272.4478149414062	-1412.599487304688	1565.76611328125	-288.9013061523438	-1220.972045898438	1592.019287109375	-364.5935363769531	-1283.237060546875	1593.007934570312	-249.0339202880859	-1344.127685546875	1567.987060546875	-452.8251953125	-1458.603149414062	812.248291015625	-618.8624267578125	-1591.667602539062	846.72314453125	-234.9662780761719	-1480.613037109375	873.67431640625	-277.0165710449219	-1383.81787109375	830.6734008789062	-511.9570007324219	-1543.053833007812	398.1327209472656	-630.2252197265625	-1475.962646484375	541.4232177734375	-621.1785278320312	-1823.119750976562	95.54374694824219	-772.302734375	-1629.443603515625	274.8836669921875	-686.8233642578125	-1689.902099609375	46.09524917602539	-597.8195190429688	-1755.439697265625	59.67565155029297	-609.3882446289062	-1704.1982421875	43.63146209716797	-709.9093017578125	-1885.62646484375	136.2188568115234	-754.822998046875	-1347.325317382812	549.092041015625	-147.5328979492188	-1496.637817382812	756.5827026367188	-182.5426483154297	-1554.474609375	178.6413726806641	-244.6184692382812	-1402.7099609375	417.0027770996094	-160.1900329589844	-1355.132934570312	129.0766143798828	-186.1836547851562	-1387.041381835938	140.3338165283203	-248.7809753417969	-1456.423461914062	141.7611236572266	-167.4989929199219	-1588.981323242188	192.6657562255859	-316.51171875	
